#!OML:ASF E:\emotionWalksFemale\Project 1\Capture day 1\Session 1\Female1.ASF
:FULLY-SPECIFIED
:DEGREES
968
root 9.06431 15.1509 16.8847 180.464 1.70184 -175.964
lowerback 8.29606 0.846329 1.52968
upperback 2.31468 1.47492 1.26809
thorax -2.25157 0.810168 0.297025
lowerneck -4.99288 -1.61401 -4.57522
upperneck -3.01279 -2.05455 5.63946
head 0.0235312 -1.04613 2.5418
rclavicle 2.60532e-014 9.44227e-015
rhumerus -29.4823 4.95294 -87.3578
rradius 33.0949
rwrist 17.4023
rhand -5.89537 -53.2746
rfingers 7.12502
rthumb 19.9329 -802.272
lclavicle 2.60532e-014 9.44227e-015
lhumerus -34.8792 10.9959 80.6035
lradius 38.1077
lwrist -10.9829
lhand -4.9995 -37.0053
lfingers 7.12502
lthumb 20.7939 -8.0995
rfemur 1.02174 8.5403 35.0204
rtibia 26.9179
rfoot -16.2368 -18.083
rtoes 6.66187
lfemur -31.2177 -13.5692 -14.5789
ltibia 30.5086
lfoot -14.9889 11.7878
ltoes -15.8314
969
root 9.04795 15.1539 16.843 180.406 1.49389 -175.952
lowerback 8.44821 0.777351 1.55964
upperback 2.31126 1.38874 1.20362
thorax -2.33751 0.767051 0.219465
lowerneck -4.87147 -1.61749 -4.42597
upperneck -3.08977 -2.07047 5.67698
head -0.0219647 -1.05858 2.52767
rclavicle 1.04486e-014 1.87852e-014
rhumerus -29.6076 4.78773 -87.4917
rradius 33.0586
rwrist 17.1978
rhand -6.46615 -53.2373
rfingers 7.12502
rthumb 19.3842 -802.291
lclavicle 1.04486e-014 1.87852e-014
lhumerus -34.7998 10.8241 80.5732
lradius 38.1133
lwrist -10.9935
lhand -5.07932 -36.9718
lfingers 7.12502
lthumb 20.7172 -8.05762
rfemur 1.07757 8.30454 35.0303
rtibia 27.239
rfoot -16.0432 -18.2137
rtoes 6.43181
lfemur -31.0626 -13.7874 -14.6662
ltibia 30.5635
lfoot -15.0181 11.8166
ltoes -16.0524
970
root 9.03477 15.1602 16.8034 180.447 1.52394 -175.991
lowerback 8.66824 0.805993 1.49548
upperback 2.25406 1.42277 1.13854
thorax -2.51807 0.781562 0.179969
lowerneck -4.95957 -1.63389 -4.3203
upperneck -3.02874 -2.09817 5.71329
head 0.0130875 -1.07269 2.51878
rclavicle 7.87684e-015 1.89839e-014
rhumerus -29.7896 4.69879 -87.6162
rradius 33.1091
rwrist 16.8654
rhand -5.61541 -53.4674
rfingers 7.12502
rthumb 20.202 -802.437
lclavicle 7.87684e-015 1.89839e-014
lhumerus -34.6872 10.4422 80.6984
lradius 38.183
lwrist -10.6149
lhand -5.14647 -36.8337
lfingers 7.12502
lthumb 20.6527 -7.91255
rfemur 1.02203 8.249 34.942
rtibia 27.5676
rfoot -16.1812 -18.0496
rtoes 8.34908
lfemur -30.9458 -13.6138 -14.8336
ltibia 30.5712
lfoot -14.9651 11.8658
ltoes -17.2751
971
root 9.02117 15.1712 16.7624 180.594 1.79775 -176.065
lowerback 8.75066 0.901062 1.35023
upperback 2.18847 1.53139 1.08734
thorax -2.63301 0.83259 0.194639
lowerneck -4.95746 -1.61694 -4.36086
upperneck -3.08875 -2.07594 5.8515
head -0.00498308 -1.06353 2.57325
rclavicle -2.40778e-014 -5.66536e-015
rhumerus -29.8403 4.59155 -87.6505
rradius 33.1079
rwrist 17.0505
rhand -4.81109 -53.5875
rfingers 7.12502
rthumb 20.9749 -802.473
lclavicle -2.40778e-014 -5.66536e-015
lhumerus -34.6456 10.1383 80.811
lradius 38.3727
lwrist -10.2679
lhand -5.23634 -36.7921
lfingers 7.12502
lthumb 20.5663 -7.86153
rfemur 0.857913 8.3213 34.7678
rtibia 27.8661
rfoot -16.137 -17.8017
rtoes 10.3117
lfemur -30.8595 -13.228 -15.0209
ltibia 30.5641
lfoot -15.1419 11.9186
ltoes -18.2326
972
root 9.00579 15.187 16.722 180.831 2.20159 -176.134
lowerback 8.59831 1.02025 1.17246
upperback 2.15353 1.66459 1.08406
thorax -2.58874 0.89695 0.2797
lowerneck -4.81363 -1.54282 -4.53361
upperneck -3.29569 -1.97193 6.01463
head -0.0966343 -1.01573 2.6642
rclavicle 4.22417e-016 -1.49089e-015
rhumerus -29.8541 4.7727 -87.6863
rradius 33.1576
rwrist 16.9321
rhand -5.35008 -53.3166
rfingers 7.12502
rthumb 20.457 -802.259
lclavicle 4.22417e-016 -1.49089e-015
lhumerus -34.6638 10.0383 80.9433
lradius 38.6292
lwrist -10.0999
lhand -5.46002 -36.9394
lfingers 7.12502
lthumb 20.3514 -7.98574
rfemur 0.563241 8.43354 34.5713
rtibia 28.1843
rfoot -15.6584 -17.6209
rtoes 9.89876
lfemur -30.8272 -12.9386 -15.1267
ltibia 30.5253
lfoot -15.4532 12.1353
ltoes -19.2452
973
root 8.98488 15.2064 16.6592 180.799 2.92675 -176.159
lowerback 8.27154 1.20591 1.05893
upperback 2.3277 1.89927 1.08187
thorax -2.23067 1.01902 0.327493
lowerneck -4.94325 -1.45455 -4.49334
upperneck -3.24862 -1.85498 5.94412
head -0.0674515 -0.956107 2.63402
rclavicle -1.47598e-014 -7.7526e-015
rhumerus -29.8516 5.37747 -87.8917
rradius 33.2297
rwrist 15.9892
rhand -6.06725 -53.0481
rfingers 7.12502
rthumb 19.7677 -802.063
lclavicle -1.47598e-014 -7.7526e-015
lhumerus -34.5363 10.0537 81.087
lradius 38.7478
lwrist -9.88554
lhand -5.71016 -37.044
lfingers 7.12502
lthumb 20.111 -8.06489
rfemur 0.698948 8.65343 34.4319
rtibia 28.4857
rfoot -15.2346 -17.3973
rtoes 8.22138
lfemur -30.3338 -12.7516 -15.2042
ltibia 30.4993
lfoot -16.0712 12.7247
ltoes -20.1568
974
root 8.97068 15.2025 16.6285 180.695 1.92245 -176.143
lowerback 8.59242 0.833095 1.0429
upperback 2.37943 1.41927 1.1065
thorax -2.35629 0.784415 0.404166
lowerneck -5.22886 -1.41394 -4.40056
upperneck -3.0716 -1.80324 5.90007
head 0.0330384 -0.926564 2.60044
rclavicle 9.11925e-015 -6.36111e-015
rhumerus -29.7595 5.60608 -88.0058
rradius 33.1773
rwrist 15.6325
rhand -5.96081 -53.102
rfingers 7.12502
rthumb 19.87 -802.106
lclavicle 9.11925e-015 -6.36111e-015
lhumerus -34.3203 9.88871 81.1913
lradius 38.8569
lwrist -9.72722
lhand -5.61238 -37.1696
lfingers 7.12502
lthumb 20.2049 -8.20045
rfemur 0.735321 7.72973 34.5136
rtibia 28.7651
rfoot -15.0756 -17.762
rtoes 8.32263
lfemur -30.2779 -13.211 -15.3914
ltibia 30.4616
lfoot -16.1299 12.3195
ltoes -21.3943
